<?xml version="1.0" standalone="no"?>
<svg xmlns:xlink="http://www.w3.org/1999/xlink" id="wave" style="transform:rotate(0deg); transition: 0.3s" viewBox="0 0 1440 460" version="1.1" xmlns="http://www.w3.org/2000/svg"><defs><linearGradient id="sw-gradient-0" x1="0" x2="0" y1="1" y2="0"><stop stop-color="rgba(218.219, 62, 243, 1)" offset="0%"/><stop stop-color="rgba(105.879, 11, 255, 1)" offset="100%"/></linearGradient></defs><path style="transform:translate(0, 0px); opacity:1" fill="url(#sw-gradient-0)" d="M0,230L18.5,222.3C36.9,215,74,199,111,214.7C147.7,230,185,276,222,268.3C258.5,261,295,199,332,168.7C369.2,138,406,138,443,138C480,138,517,138,554,130.3C590.8,123,628,107,665,130.3C701.5,153,738,215,775,253C812.3,291,849,307,886,322C923.1,337,960,353,997,322C1033.8,291,1071,215,1108,222.3C1144.6,230,1182,322,1218,329.7C1255.4,337,1292,261,1329,207C1366.2,153,1403,123,1440,161C1476.9,199,1514,307,1551,322C1587.7,337,1625,261,1662,237.7C1698.5,215,1735,245,1772,283.7C1809.2,322,1846,368,1883,383.3C1920,399,1957,383,1994,345C2030.8,307,2068,245,2105,222.3C2141.5,199,2178,215,2215,237.7C2252.3,261,2289,291,2326,291.3C2363.1,291,2400,261,2437,260.7C2473.8,261,2511,291,2548,322C2584.6,353,2622,383,2640,398.7L2658.5,414L2658.5,460L2640,460C2621.5,460,2585,460,2548,460C2510.8,460,2474,460,2437,460C2400,460,2363,460,2326,460C2289.2,460,2252,460,2215,460C2178.5,460,2142,460,2105,460C2067.7,460,2031,460,1994,460C1956.9,460,1920,460,1883,460C1846.2,460,1809,460,1772,460C1735.4,460,1698,460,1662,460C1624.6,460,1588,460,1551,460C1513.8,460,1477,460,1440,460C1403.1,460,1366,460,1329,460C1292.3,460,1255,460,1218,460C1181.5,460,1145,460,1108,460C1070.8,460,1034,460,997,460C960,460,923,460,886,460C849.2,460,812,460,775,460C738.5,460,702,460,665,460C627.7,460,591,460,554,460C516.9,460,480,460,443,460C406.2,460,369,460,332,460C295.4,460,258,460,222,460C184.6,460,148,460,111,460C73.8,460,37,460,18,460L0,460Z"/><defs><linearGradient id="sw-gradient-1" x1="0" x2="0" y1="1" y2="0"><stop stop-color="rgba(148.311, 13.031, 125.589, 1)" offset="0%"/><stop stop-color="rgba(255, 179, 11, 1)" offset="100%"/></linearGradient></defs><path style="transform:translate(0, 50px); opacity:0.9" fill="url(#sw-gradient-1)" d="M0,368L18.5,368C36.9,368,74,368,111,329.7C147.7,291,185,215,222,222.3C258.5,230,295,322,332,337.3C369.2,353,406,291,443,245.3C480,199,517,169,554,168.7C590.8,169,628,199,665,230C701.5,261,738,291,775,253C812.3,215,849,107,886,84.3C923.1,61,960,123,997,168.7C1033.8,215,1071,245,1108,245.3C1144.6,245,1182,215,1218,168.7C1255.4,123,1292,61,1329,84.3C1366.2,107,1403,215,1440,283.7C1476.9,353,1514,383,1551,368C1587.7,353,1625,291,1662,245.3C1698.5,199,1735,169,1772,176.3C1809.2,184,1846,230,1883,268.3C1920,307,1957,337,1994,322C2030.8,307,2068,245,2105,184C2141.5,123,2178,61,2215,53.7C2252.3,46,2289,92,2326,153.3C2363.1,215,2400,291,2437,283.7C2473.8,276,2511,184,2548,168.7C2584.6,153,2622,215,2640,245.3L2658.5,276L2658.5,460L2640,460C2621.5,460,2585,460,2548,460C2510.8,460,2474,460,2437,460C2400,460,2363,460,2326,460C2289.2,460,2252,460,2215,460C2178.5,460,2142,460,2105,460C2067.7,460,2031,460,1994,460C1956.9,460,1920,460,1883,460C1846.2,460,1809,460,1772,460C1735.4,460,1698,460,1662,460C1624.6,460,1588,460,1551,460C1513.8,460,1477,460,1440,460C1403.1,460,1366,460,1329,460C1292.3,460,1255,460,1218,460C1181.5,460,1145,460,1108,460C1070.8,460,1034,460,997,460C960,460,923,460,886,460C849.2,460,812,460,775,460C738.5,460,702,460,665,460C627.7,460,591,460,554,460C516.9,460,480,460,443,460C406.2,460,369,460,332,460C295.4,460,258,460,222,460C184.6,460,148,460,111,460C73.8,460,37,460,18,460L0,460Z"/></svg>